<svg width="44" height="44" viewBox="0 0 44 44" version="1.1" xmlns="http://www.w3.org/2000/svg" xmlns:xlink="http://www.w3.org/1999/xlink">
<title>834ccfc2013c3f8484a194f9421136a489c4461d</title>
<desc>Created using Figma</desc>
<g id="Canvas" transform="translate(-20269 -1375)">
<g id="834ccfc2013c3f8484a194f9421136a489c4461d">
<g id="Vector">
<use xlink:href="#path0_fill" transform="translate(20269 1375)" fill="#F2F2F2"/>
</g>
<g id="Vector">
<use xlink:href="#path1_fill" transform="translate(20282.7 1382.68)" fill="#F2F2F2"/>
</g>
</g>
</g>
<defs>
<path id="path0_fill" d="M 22.0024 44C 19.0324 44 16.152 43.4174 13.4394 42.2712C 8.16647 40.0359 3.96897 35.8384 1.7336 30.5655C 0.58256 27.848 0 24.9682 0 21.9976C 0 19.0269 0.58256 16.148 1.72876 13.4345C 3.41025 9.44912 6.23039 6.04851 9.83591 3.65871C 13.4414 1.26892 17.672 -0.00379722 21.9976 8.51014e-06C 24.9634 8.51014e-06 27.852 0.577949 30.5655 1.72415C 34.5508 3.40562 37.9514 6.22573 40.3412 9.8312C 42.731 13.4367 44.0038 17.6672 44 21.9927C 44 24.9627 43.4174 27.8432 42.2712 30.5558C 40.036 35.8289 35.8384 40.0265 30.5655 42.262C 27.852 43.4174 24.9731 44 22.0024 44ZM 22.0024 4.88577C 17.4319 4.88577 13.1336 6.66777 9.90044 9.89561C 6.66644 13.1296 4.8906 17.4271 4.8906 21.9976C 4.8906 26.5681 6.67194 30.866 9.9 34.1C 13.134 37.3285 17.4315 39.1098 22.002 39.1098C 26.5725 39.1098 30.8708 37.3278 34.104 34.1C 37.3325 30.866 39.1138 26.5685 39.1138 21.998C 39.1138 17.4275 37.3318 13.1292 34.104 9.89605C 30.87 6.66755 26.5725 4.88621 22.002 4.88621L 22.0024 4.88577Z"/>
<path id="path1_fill" d="M 6.96601 19.796L 16.4986 19.796L 16.4986 24.5863L 10.629 24.5863C 10.7245 25.9569 10.7771 27.2263 10.8725 28.5932L 5.93399 28.5932L 5.93399 24.6332L 0.0643881 24.6332C 0.0643881 23.0668 -0.131411 21.505 0.159869 20.0387C 0.307929 19.2555 1.18661 18.5726 1.72627 17.8895C 3.58417 15.6878 5.44185 13.5388 7.34749 11.337C 8.08295 10.5061 8.81357 9.7229 9.64473 8.79626L 0.503729 8.79626L 0.503729 4.00708L 5.92915 4.00708L 5.92915 1.61133e-07L 10.6715 1.61133e-07L 10.6715 3.91138L 16.5895 3.91138C 16.5895 5.52552 16.7853 7.0873 16.494 8.55822C 16.3459 9.34142 15.4672 10.0243 14.8798 10.7074C 13.0219 12.9092 11.1643 15.0581 9.25863 17.2599C 8.53263 18.1339 7.80201 18.9123 6.96623 19.7958"/>
</defs>
</svg>
